<?xml version="1.0" encoding="UTF-8"?>
<svg id="Camada_2" xmlns="http://www.w3.org/2000/svg" xmlns:xlink="http://www.w3.org/1999/xlink" viewBox="0 0 551.98 162">
  <defs>
    <style>
      .cls-1 {
        fill: url(#Gradiente_sem_nome_48);
      }

      .cls-2 {
        fill: url(#Gradiente_sem_nome_238);
      }

      .cls-3 {
        fill: #51b89b;
      }
    </style>
    <linearGradient id="Gradiente_sem_nome_238" data-name="Gradiente sem nome 238" x1="0" y1="80.01" x2="116.56" y2="80.01" gradientUnits="userSpaceOnUse">
      <stop offset="0" stop-color="#0f468e"/>
      <stop offset=".36" stop-color="#3156a2"/>
      <stop offset="1" stop-color="#4097d3"/>
    </linearGradient>
    <linearGradient id="Gradiente_sem_nome_48" data-name="Gradiente sem nome 48" x1="51.29" y1="81.2" x2="172.48" y2="81.2" gradientUnits="userSpaceOnUse">
      <stop offset="0" stop-color="#33bad9"/>
      <stop offset=".8" stop-color="#4081c2"/>
      <stop offset="1" stop-color="#3156a2"/>
    </linearGradient>
  </defs>
  <g id="Camada_1-2" data-name="Camada_1">
    <g>
      <path class="cls-2" d="M59.08,55.33c-1.64,64.42-7.09,55.14,57.48,54.65C73.39,148.13,60.1,165.62,0,158.43c.03-2.07-.04-104.32.02-102.85C1.19,54.5,59.44-.8,58.64,0c0,1.08.44,55.32.44,55.32Z"/>
      <path class="cls-1" d="M170.62,56.44c11,54.87-29.16,71.56-62.17,105.56,0-27.64,0-77.76,0-105.56,0,0-57.17,0-57.17,0C92.72,16.11,101.55-6.09,167.69,2.09c0,0-58.58,54.35-58.58,54.35h61.51Z"/>
      <path class="cls-3" d="M105.15,102.61s-.01.04-.05.04c0,0,.05-.04.05-.04Z"/>
      <g>
        <path d="M224.71,43.95v82.43h-21.43l.58-65.94,20.85-16.49ZM267.23,107.62l-16.62,18.83-32.05-.08v-18.65l48.67-.11Z"/>
        <path d="M280.2,49.15c0-2.3,1.01-4.2,3.04-5.69,2.03-1.49,4.8-2.24,8.32-2.24s6.26.74,8.24,2.24c1.97,1.49,2.96,3.39,2.96,5.69s-.99,4.1-2.96,5.63c-1.97,1.53-4.72,2.29-8.24,2.29s-6.29-.76-8.32-2.29c-2.03-1.53-3.04-3.41-3.04-5.63ZM301.79,65.12v61.26h-20.55v-61.26h20.55Z"/>
        <path d="M341.05,76.9l-3.18,58.42-17.29,14.61v-84.81h18.87l1.6,11.78ZM386.79,93.48v4.47c0,4.79-.6,9.02-1.8,12.68-1.2,3.66-2.96,6.75-5.28,9.26-2.32,2.51-5.22,4.41-8.72,5.69-3.49,1.28-7.56,1.93-12.19,1.93-4.37,0-8.13-.7-11.27-2.09-3.15-1.4-5.81-3.36-8-5.89-2.19-2.53-3.92-5.48-5.2-8.86-1.28-3.38-2.24-7.09-2.88-11.12v-6.85c.64-4.23,1.57-8.09,2.8-11.58,1.23-3.49,2.93-6.53,5.12-9.11,2.19-2.59,4.86-4.57,8.04-5.95,3.17-1.38,6.92-2.07,11.23-2.07,4.69,0,8.8.59,12.31,1.78,3.52,1.19,6.45,3,8.8,5.44,2.34,2.43,4.1,5.49,5.28,9.17,1.17,3.68,1.76,8.05,1.76,13.11ZM366.24,97.96v-4.47c0-3.06-.25-5.67-.76-7.84-.51-2.17-1.31-3.95-2.4-5.35-1.09-1.4-2.51-2.42-4.24-3.09-1.73-.66-3.85-.99-6.36-.99-2.29,0-4.32.33-6.08.99-1.76.66-3.2,1.6-4.32,2.8-1.12,1.21-2.01,2.65-2.68,4.33-.67,1.68-1.08,3.54-1.24,5.58v12.51c.32,2.45.97,4.64,1.96,6.57.99,1.93,2.48,3.47,4.48,4.64,2,1.17,4.68,1.76,8.04,1.76,2.5,0,4.62-.36,6.36-1.08,1.73-.72,3.14-1.79,4.24-3.23,1.09-1.43,1.87-3.25,2.32-5.43.45-2.19.68-4.76.68-7.7Z"/>
        <path d="M435.48,127.51c-5.76,0-10.86-.62-15.31-1.87-4.45-1.25-8.22-3.06-11.31-5.43-3.09-2.38-5.45-5.3-7.08-8.78-1.63-3.47-2.44-7.45-2.44-11.95v-5.49c0-5.06.83-9.46,2.48-13.22,1.65-3.76,3.96-6.88,6.92-9.37,2.96-2.49,6.53-4.35,10.71-5.58,4.18-1.23,8.81-1.84,13.87-1.84,5.44,0,10.19.63,14.27,1.9,4.08,1.27,7.45,3.14,10.11,5.63,2.66,2.49,4.65,5.58,5.96,9.26,1.31,3.68,1.96,7.94,1.96,12.77v6.96h-57.09v-10.59h36.94v-1.42c-.11-2.64-.55-4.89-1.32-6.74-.77-1.85-2.04-3.25-3.8-4.22-1.76-.96-4.13-1.44-7.12-1.44-2.35,0-4.36.33-6.04.99-1.68.66-3.05,1.69-4.12,3.09-1.07,1.4-1.85,3.23-2.36,5.49-.51,2.27-.76,5.04-.76,8.32v5.49c0,2.91.36,5.37,1.08,7.39.72,2.02,1.8,3.66,3.24,4.93,1.44,1.27,3.2,2.18,5.28,2.75,2.08.57,4.5.85,7.28.85,4.16,0,7.81-.53,10.95-1.58,3.14-1.06,5.86-2.51,8.16-4.36l8.55,8.89c-1.55,1.47-3.65,2.92-6.32,4.33-2.67,1.42-5.86,2.58-9.6,3.48-3.73.91-8.1,1.36-13.11,1.36Z"/>
        <path d="M515.92,65.12v11.04h-43.34v-11.04h43.34ZM483.53,50.06h20.47v58.43c0,1.77.25,3.14.76,4.1.51.96,1.28,1.61,2.32,1.95,1.04.34,2.3.51,3.8.51,1.12,0,2.17-.06,3.16-.17.99-.11,1.72-.23,2.2-.34v11.49c-1.55.45-3.25.81-5.12,1.08-1.87.26-4.13.4-6.8.4-4.16,0-7.78-.58-10.87-1.73-3.09-1.15-5.52-3.04-7.28-5.66-1.76-2.62-2.64-6.07-2.64-10.33v-59.73Z"/>
        <path d="M529.43,49.15c0-2.3,1.01-4.2,3.04-5.69,2.02-1.49,4.8-2.24,8.32-2.24s6.26.74,8.24,2.24c1.97,1.49,2.96,3.39,2.96,5.69s-.99,4.1-2.96,5.63c-1.97,1.53-4.72,2.29-8.24,2.29s-6.29-.76-8.32-2.29c-2.03-1.53-3.04-3.41-3.04-5.63ZM551.02,65.12v61.26h-20.55v-61.26h20.55Z"/>
      </g>
    </g>
  </g>
</svg>